<?xml version="1.0" encoding="iso-8859-1"?>
<!-- Generator: Adobe Illustrator 19.0.0, SVG Export Plug-In . SVG Version: 6.00 Build 0)  -->
<svg version="1.1" id="Layer_1" xmlns="http://www.w3.org/2000/svg" xmlns:xlink="http://www.w3.org/1999/xlink" x="0px" y="0px"
	 viewBox="0 0 512 512" style="enable-background:new 0 0 512 512;" xml:space="preserve">
<rect x="7" y="32" style="fill:#FC6E51;" width="493" height="452"/>
<path d="M266.25,21.344h-20.5H0v149.312V192v128v21.344v149.312h245.75h20.5H512V341.344V320V192v-21.344V21.344H266.25z
	 M21.344,42.656h223.562v128H21.344V42.656z M21.344,192h223.562v128H21.344V192z M244.906,469.344H21.344v-128h223.562
	L244.906,469.344L244.906,469.344z M490.672,469.344H267.094v-128h223.578V469.344z M490.672,320H267.094V192h223.578V320z
	 M267.094,170.656v-128h223.578v128H267.094z"/>
<path d="M160,128H53.344c-5.906,0-10.688,4.781-10.688,10.656c0,5.906,4.781,10.688,10.688,10.688H160
	c5.891,0,10.656-4.781,10.656-10.688C170.656,132.781,165.891,128,160,128z"/>
<path d="M53.344,106.656H96c5.891,0,10.656-4.766,10.656-10.656S101.891,85.344,96,85.344H53.344
	c-5.906,0-10.688,4.766-10.688,10.656S47.438,106.656,53.344,106.656z"/>
<path d="M405.328,128H298.656c-5.875,0-10.656,4.781-10.656,10.656c0,5.906,4.781,10.688,10.656,10.688h106.672
	c5.891,0,10.672-4.781,10.672-10.688C416,132.781,411.219,128,405.328,128z"/>
<path d="M298.656,106.656h42.688C347.219,106.656,352,101.89,352,96s-4.781-10.656-10.656-10.656h-42.688
	C292.781,85.344,288,90.109,288,96S292.781,106.656,298.656,106.656z"/>
<g>
	<path style="fill:#FFCE54;" d="M213.344,64c-5.906,0-10.688,4.781-10.688,10.656c0,5.906,4.781,10.688,10.688,10.688
		c5.875,0,10.656-4.781,10.656-10.688C224,68.781,219.219,64,213.344,64z"/>
	<path style="fill:#FFCE54;" d="M469.328,64c-5.891,0-10.656,4.781-10.656,10.656c0,5.906,4.766,10.688,10.656,10.688
		S480,80.562,480,74.656C480,68.781,475.219,64,469.328,64z"/>
</g>
<path d="M160,277.344H53.344c-5.906,0-10.688,4.766-10.688,10.656s4.781,10.656,10.688,10.656H160
	c5.891,0,10.656-4.766,10.656-10.656S165.891,277.344,160,277.344z"/>
<path d="M53.344,256H96c5.891,0,10.656-4.781,10.656-10.656c0-5.906-4.766-10.688-10.656-10.688H53.344
	c-5.906,0-10.688,4.781-10.688,10.688C42.656,251.219,47.438,256,53.344,256z"/>
<path d="M298.656,298.656h106.672c5.891,0,10.672-4.766,10.672-10.656s-4.781-10.656-10.672-10.656H298.656
	C292.781,277.344,288,282.11,288,288S292.781,298.656,298.656,298.656z"/>
<path d="M298.656,256h42.688c5.875,0,10.656-4.781,10.656-10.656c0-5.906-4.781-10.688-10.656-10.688h-42.688
	c-5.875,0-10.656,4.781-10.656,10.688C288,251.219,292.781,256,298.656,256z"/>
<g>
	<path style="fill:#FFCE54;" d="M213.344,213.344c-5.906,0-10.688,4.766-10.688,10.656s4.781,10.656,10.688,10.656
		c5.875,0,10.656-4.766,10.656-10.656S219.219,213.344,213.344,213.344z"/>
	<path style="fill:#FFCE54;" d="M469.328,234.656c5.891,0,10.672-4.766,10.672-10.656s-4.781-10.656-10.672-10.656
		S458.672,218.11,458.672,224S463.438,234.656,469.328,234.656z"/>
</g>
<path d="M53.344,448H160c5.891,0,10.656-4.781,10.656-10.656c0-5.906-4.766-10.688-10.656-10.688H53.344
	c-5.906,0-10.688,4.781-10.688,10.688C42.656,443.219,47.438,448,53.344,448z"/>
<path d="M53.344,405.344H96c5.891,0,10.656-4.781,10.656-10.688C106.656,388.781,101.89,384,96,384H53.344
	c-5.906,0-10.688,4.781-10.688,10.656C42.656,400.562,47.438,405.344,53.344,405.344z"/>
<path d="M298.656,448h106.672c5.891,0,10.672-4.781,10.672-10.656c0-5.906-4.781-10.688-10.672-10.688H298.656
	c-5.875,0-10.656,4.781-10.656,10.688C288,443.219,292.781,448,298.656,448z"/>
<path d="M298.656,405.344h42.688c5.875,0,10.656-4.781,10.656-10.688c0-5.875-4.781-10.656-10.656-10.656h-42.688
	c-5.875,0-10.656,4.781-10.656,10.656C288,400.562,292.781,405.344,298.656,405.344z"/>
<g>
	<path style="fill:#FFCE54;" d="M213.344,384c5.875,0,10.656-4.781,10.656-10.656c0-5.906-4.781-10.688-10.656-10.688
		c-5.906,0-10.688,4.781-10.688,10.688C202.656,379.219,207.438,384,213.344,384z"/>
	<path style="fill:#FFCE54;" d="M469.328,384c5.891,0,10.672-4.781,10.672-10.656c0-5.906-4.781-10.688-10.672-10.688
		s-10.656,4.781-10.656,10.688C458.672,379.219,463.438,384,469.328,384z"/>
</g>
<g>
</g>
<g>
</g>
<g>
</g>
<g>
</g>
<g>
</g>
<g>
</g>
<g>
</g>
<g>
</g>
<g>
</g>
<g>
</g>
<g>
</g>
<g>
</g>
<g>
</g>
<g>
</g>
<g>
</g>
</svg>
