<?xml version="1.0" encoding="iso-8859-1"?>
<!-- Generator: Adobe Illustrator 19.0.0, SVG Export Plug-In . SVG Version: 6.00 Build 0)  -->
<svg version="1.1" id="Layer_1" xmlns="http://www.w3.org/2000/svg" xmlns:xlink="http://www.w3.org/1999/xlink" x="0px" y="0px"
	 viewBox="0 0 490 490" style="enable-background:new 0 0 490 490;" xml:space="preserve">
<g>
	<g id="XMLID_38_">
		<g>
			<polygon style="fill:#FFD248;" points="480,240 480,480 380,480 10,480 10,395 10,180 10,90 10,10 195,10 320,10 480,10 			"/>
			<rect x="39" y="35" style="fill:#FFBF48;" width="411" height="417"/>
		</g>
		<path d="M480,0H10C4.477,0,0,4.477,0,10v470c0,5.522,4.477,10,10,10h470c5.523,0,10-4.478,10-10V10C490,4.477,485.523,0,480,0z
			 M390,470v-50c0-5.522-4.477-10-10-10h-80v20h70v40H20v-65h220c5.523,0,10-4.478,10-10v-60h-20v50H20V190h70v115
			c0,5.522,4.477,10,10,10h65v-20h-55V190h90v-20H20v-70h110V80H20V20h165v105c0,5.523,4.477,10,10,10h60v-20h-50V20h105v140h20V90
			h80v95h20V80c0-5.522-4.477-10-10-10h-90V20h140v210H215v20h95v105c0,5.522,4.477,10,10,10h120v-20H330v-95h140v220H390z"/>
	</g>
</g>
<g>
</g>
<g>
</g>
<g>
</g>
<g>
</g>
<g>
</g>
<g>
</g>
<g>
</g>
<g>
</g>
<g>
</g>
<g>
</g>
<g>
</g>
<g>
</g>
<g>
</g>
<g>
</g>
<g>
</g>
</svg>
