<?xml version="1.0" encoding="iso-8859-1"?>
<!-- Generator: Adobe Illustrator 19.0.0, SVG Export Plug-In . SVG Version: 6.00 Build 0)  -->
<svg xmlns="http://www.w3.org/2000/svg" xmlns:xlink="http://www.w3.org/1999/xlink" version="1.1" id="Layer_1" x="0px" y="0px" viewBox="0 0 512 512" style="enable-background:new 0 0 512 512;" xml:space="preserve" width="512px" height="512px">
<g>
	<g>
		<path d="M266.25,21.336h-20.5H0v149.328V192v128v21.336v149.328h245.75h20.5H512V341.336V320V192v-21.336V21.336H266.25z     M244.906,469.336H21.344v-128h223.562V469.336z M244.906,320H21.344V192h223.562V320z M244.906,170.664H21.344v-128h223.562    V170.664z M490.672,469.336H267.094v-128h223.578V469.336z M490.672,320H267.094V192h223.578V320z M490.672,170.664H267.094v-128    h223.578V170.664z" fill="#00ffff"/>
	</g>
</g>
<g>
	<g>
		<path d="M160,128H53.344c-5.906,0-10.688,4.773-10.688,10.664s4.781,10.672,10.688,10.672H160c5.891,0,10.656-4.781,10.656-10.672    S165.891,128,160,128z" fill="#00ffff"/>
	</g>
</g>
<g>
	<g>
		<path d="M96,85.336H53.344c-5.906,0-10.688,4.773-10.688,10.664s4.782,10.664,10.688,10.664H96    c5.891,0,10.656-4.773,10.656-10.664S101.891,85.336,96,85.336z" fill="#00ffff"/>
	</g>
</g>
<g>
	<g>
		<path d="M405.328,128H298.656c-5.875,0-10.656,4.773-10.656,10.664s4.781,10.672,10.656,10.672h106.672    c5.891,0,10.672-4.781,10.672-10.672S411.219,128,405.328,128z" fill="#00ffff"/>
	</g>
</g>
<g>
	<g>
		<path d="M341.344,85.336h-42.688C292.781,85.336,288,90.109,288,96s4.781,10.664,10.656,10.664h42.688    c5.875,0,10.656-4.773,10.656-10.664S347.219,85.336,341.344,85.336z" fill="#00ffff"/>
	</g>
</g>
<g>
	<g>
		<path d="M213.344,64c-5.906,0-10.688,4.773-10.688,10.664s4.781,10.672,10.688,10.672c5.875,0,10.656-4.781,10.656-10.672    S219.219,64,213.344,64z" fill="#00ffff"/>
	</g>
</g>
<g>
	<g>
		<path d="M469.328,64c-5.891,0-10.656,4.773-10.656,10.664s4.766,10.672,10.656,10.672S480,80.555,480,74.664    S475.219,64,469.328,64z" fill="#00ffff"/>
	</g>
</g>
<g>
	<g>
		<path d="M160,277.336H53.344c-5.906,0-10.688,4.773-10.688,10.664s4.781,10.664,10.688,10.664H160    c5.891,0,10.656-4.773,10.656-10.664S165.891,277.336,160,277.336z" fill="#00ffff"/>
	</g>
</g>
<g>
	<g>
		<path d="M96,234.664H53.344c-5.906,0-10.688,4.781-10.688,10.672S47.438,256,53.344,256H96c5.891,0,10.656-4.773,10.656-10.664    S101.891,234.664,96,234.664z" fill="#00ffff"/>
	</g>
</g>
<g>
	<g>
		<path d="M405.328,277.336H298.656c-5.875,0-10.656,4.773-10.656,10.664s4.781,10.664,10.656,10.664h106.672    c5.891,0,10.672-4.773,10.672-10.664S411.219,277.336,405.328,277.336z" fill="#00ffff"/>
	</g>
</g>
<g>
	<g>
		<path d="M341.344,234.664h-42.688c-5.875,0-10.656,4.781-10.656,10.672S292.781,256,298.656,256h42.688    c5.875,0,10.656-4.773,10.656-10.664S347.219,234.664,341.344,234.664z" fill="#00ffff"/>
	</g>
</g>
<g>
	<g>
		<path d="M213.344,213.336c-5.906,0-10.688,4.773-10.688,10.664s4.781,10.664,10.688,10.664c5.875,0,10.656-4.773,10.656-10.664    S219.219,213.336,213.344,213.336z" fill="#00ffff"/>
	</g>
</g>
<g>
	<g>
		<path d="M469.328,213.336c-5.891,0-10.656,4.773-10.656,10.664s4.766,10.664,10.656,10.664c5.891,0,10.672-4.773,10.672-10.664    S475.219,213.336,469.328,213.336z" fill="#00ffff"/>
	</g>
</g>
<g>
	<g>
		<path d="M160,426.664H53.344c-5.906,0-10.688,4.781-10.688,10.672S47.438,448,53.344,448H160c5.891,0,10.656-4.773,10.656-10.664    S165.89,426.664,160,426.664z" fill="#00ffff"/>
	</g>
</g>
<g>
	<g>
		<path d="M96,384H53.344c-5.906,0-10.688,4.773-10.688,10.664c0,5.898,4.782,10.672,10.688,10.672H96    c5.891,0,10.656-4.773,10.656-10.672C106.656,388.773,101.89,384,96,384z" fill="#00ffff"/>
	</g>
</g>
<g>
	<g>
		<path d="M405.328,426.664H298.656c-5.875,0-10.656,4.781-10.656,10.672S292.781,448,298.656,448h106.672    c5.891,0,10.672-4.773,10.672-10.664S411.219,426.664,405.328,426.664z" fill="#00ffff"/>
	</g>
</g>
<g>
	<g>
		<path d="M341.344,384h-42.688c-5.875,0-10.656,4.773-10.656,10.664c0,5.898,4.781,10.672,10.656,10.672h42.688    c5.875,0,10.656-4.773,10.656-10.672C352,388.773,347.219,384,341.344,384z" fill="#00ffff"/>
	</g>
</g>
<g>
	<g>
		<path d="M213.344,362.664c-5.906,0-10.688,4.781-10.688,10.672S207.438,384,213.344,384c5.875,0,10.656-4.773,10.656-10.664    S219.219,362.664,213.344,362.664z" fill="#00ffff"/>
	</g>
</g>
<g>
	<g>
		<path d="M469.328,362.664c-5.891,0-10.656,4.781-10.656,10.672S463.438,384,469.328,384c5.891,0,10.672-4.773,10.672-10.664    S475.219,362.664,469.328,362.664z" fill="#00ffff"/>
	</g>
</g>
<g>
</g>
<g>
</g>
<g>
</g>
<g>
</g>
<g>
</g>
<g>
</g>
<g>
</g>
<g>
</g>
<g>
</g>
<g>
</g>
<g>
</g>
<g>
</g>
<g>
</g>
<g>
</g>
<g>
</g>
</svg>
