<?xml version="1.0" encoding="iso-8859-1"?>
<!-- Generator: Adobe Illustrator 19.0.0, SVG Export Plug-In . SVG Version: 6.00 Build 0)  -->
<svg xmlns="http://www.w3.org/2000/svg" xmlns:xlink="http://www.w3.org/1999/xlink" version="1.1" id="Layer_1" x="0px" y="0px" viewBox="0 0 490 490" style="enable-background:new 0 0 490 490;" xml:space="preserve" width="512px" height="512px">
<g>
	<g>
		<path d="M480,0H10C4.477,0,0,4.477,0,10v470c0,5.522,4.477,10,10,10h470c5.523,0,10-4.478,10-10V10C490,4.477,485.523,0,480,0z     M470,230H215v20h95v105c0,5.522,4.477,10,10,10h120v-20H330v-95h140v220h-80v-50c0-5.522-4.477-10-10-10h-80v20h70v40H20v-65h220    c5.523,0,10-4.478,10-10v-60h-20v50H20V190h70v115c0,5.522,4.477,10,10,10h65v-20h-55V190h90v-20H20v-70h110V80H20V20h165v105    c0,5.523,4.477,10,10,10h60v-20h-50V20h105v140h20V90h80v95h20V80c0-5.522-4.477-10-10-10h-90V20h140V230z" fill="#00ffff"/>
	</g>
</g>
<g>
</g>
<g>
</g>
<g>
</g>
<g>
</g>
<g>
</g>
<g>
</g>
<g>
</g>
<g>
</g>
<g>
</g>
<g>
</g>
<g>
</g>
<g>
</g>
<g>
</g>
<g>
</g>
<g>
</g>
</svg>
